/vscmnt/brussel_pixiu_data/_data_brussel/112/vsc11236/PredSimResults/SUBJ10opt3D/expIG/worker_01.mot
version=1
nRows=4
nColumns=50
inDegrees=yes
endheader
                time	         pelvis_tilt	         pelvis_list	     pelvis_rotation	           pelvis_tx	           pelvis_ty	           pelvis_tz	       hip_flexion_r	     hip_adduction_r	      hip_rotation_r	        knee_angle_r	       ankle_angle_r	         mtp_angle_r	       hip_flexion_l	     hip_adduction_l	      hip_rotation_l	        knee_angle_l	       ankle_angle_l	         mtp_angle_l	    lumbar_extension	      lumbar_bending	     lumbar_rotation	 ercspn_r/activation	 intobl_r/activation	 extobl_r/activation	    abd_r/activation	    add_r/activation	hamstrings_r/activation	bifemsh_r/activation	glut_max_r/activation	iliopsoas_r/activation	rect_fem_r/activation	  vasti_r/activation	gastroc_r/activation	 soleus_r/activation	tib_ant_r/activation	 ercspn_l/activation	 intobl_l/activation	 extobl_l/activation	    abd_l/activation	    add_l/activation	hamstrings_l/activation	bifemsh_l/activation	glut_max_l/activation	iliopsoas_l/activation	rect_fem_l/activation	  vasti_l/activation	gastroc_l/activation	 soleus_l/activation	tib_ant_l/activation	
          0.00000000	          0.24648582	         -3.09229114	         10.39474621	          0.00000000	          0.84687581	         -0.02394016	         21.26928699	          0.65358866	         -4.21440015	        -10.34262354	          0.71908250	          0.23534568	        -13.14713810	         -3.61137103	          0.00443988	         -5.58604786	         12.34579873	         15.68650270	         -4.04574198	         -1.09141966	         -3.44816332	          0.10881061	          0.15917877	          0.01000025	          0.01000003	          0.14701640	          0.07033405	          0.11205739	          0.01000727	          0.06872979	          0.01000036	          0.01000005	          0.01360419	          0.01000151	          0.20136186	          0.04714487	          0.01000003	          0.01000006	          0.08796612	          0.01000013	          0.01000345	          0.19275536	          0.01000010	          0.22478670	          0.01000035	          0.01000005	          0.22029521	          0.20402093	          0.02092031	
          0.01563152	          0.16649167	         -2.94923233	          9.86727469	          0.01171829	          0.84535655	         -0.02214866	         20.76789789	          0.89186099	         -3.95519119	        -10.72471690	          0.59973951	          0.23358429	        -13.33614003	         -3.50747357	         -1.02381823	         -6.80694520	         12.37719572	         16.93688338	         -3.78955481	         -0.70401976	         -3.81733782	          0.10098564	          0.16946260	          0.01000014	          0.01000004	          0.14623004	          0.06347671	          0.08889762	          0.01034310	          0.05452474	          0.01000018	          0.01000013	          0.01079252	          0.01000006	          0.22939112	          0.05887835	          0.01000001	          0.01000005	          0.07192226	          0.01000008	          0.01000245	          0.15291686	          0.01000006	          0.17832784	          0.01000030	          0.01000003	          0.20871669	          0.21058328	          0.01659652	
          0.03126304	          0.09120446	         -2.82767277	          9.27545794	          0.02366062	          0.84410484	         -0.02021885	         20.29189014	          1.13194148	         -3.71157239	        -11.10025858	          0.34459684	          0.22962452	        -13.48194852	         -3.42682568	         -2.09580399	         -8.13200876	         12.24733578	         18.24259773	         -3.51635566	         -0.25574533	         -4.18351813	          0.09618698	          0.15710412	          0.01000014	          0.01000006	          0.13259244	          0.06526085	          0.07052442	          0.01000008	          0.04325558	          0.01000015	          0.02516719	          0.01000007	          0.01000005	          0.25900071	          0.06688248	          0.01000001	          0.01000005	          0.05891643	          0.01000012	          0.01000788	          0.12131209	          0.01000012	          0.14147107	          0.01000034	          0.01000007	          0.19322229	          0.21192249	          0.01316637	
          0.04689457	          0.02081169	         -2.72871064	          8.61991312	          0.03574633	          0.84327649	         -0.01814511	         19.85940082	          1.38043707	         -3.55056140	        -11.54032927	          0.10221300	          0.22276921	        -13.54075311	         -3.37570771	         -3.19946162	         -9.62336988	         11.92154746	         19.58732319	         -3.23470402	          0.24945777	         -4.54380507	          0.08685100	          0.12960885	          0.01000012	          0.01000009	          0.10518946	          0.07062219	          0.05594859	          0.01000015	          0.03431553	          0.01000012	          0.04834716	          0.01000008	          0.01000004	          0.27536313	          0.07266623	          0.01000001	          0.01000005	          0.04673962	          0.01000015	          0.01423355	          0.09623937	          0.01000864	          0.11223185	          0.01000041	          0.01000013	          0.17396456	          0.20733155	          0.01044519	
